# This file uses centimeters as units for non-parametric coordinates.

mtllib Display_Case.mtl
g default
v -1.500000 0.000000 1.050045
v -1.050045 0.000000 1.500000
v -1.500000 6.000000 1.050045
v -1.050045 6.000000 1.500000
v 1.500000 0.000000 1.050045
v 1.050045 0.000000 1.500000
v 1.500000 6.000000 1.050045
v 1.050045 6.000000 1.500000
v -1.500000 6.000000 -1.050045
v -1.050045 6.000000 -1.500000
v -1.500000 0.000000 -1.050045
v -1.050045 0.000000 -1.500000
v 1.050045 6.000000 -1.500000
v 1.500000 6.000000 -1.050045
v 1.500000 0.000000 -1.050045
v 1.050045 0.000000 -1.500000
vt 0.250000 0.588225
vt 0.250000 0.000000
vt 0.455888 0.588225
vt 0.205888 0.588225
vt 0.455888 0.000000
vt 0.205888 0.000000
vt 0.500000 0.000000
vt 0.500000 0.588225
vt 0.750000 0.588225
vt 0.750000 0.000000
vt 0.955888 0.588225
vt 0.705887 0.588225
vt 0.955887 0.000000
vt 0.705887 0.000000
vt 1.000000 0.000000
vt 1.000000 0.588225
vt 0.328532 0.872145
vt 0.285948 0.829561
vt 0.328532 0.588225
vt 0.285948 0.630809
vt 0.527284 0.872145
vt 0.527284 0.588225
vt 0.569868 0.829561
vt 0.569868 0.630809
vt 0.241336 0.872145
vt 0.241336 0.588225
vt 0.283920 0.829561
vt 0.042584 0.588225
vt 0.283920 0.630809
vt 0.042584 0.872145
vt 0.000000 0.829561
vt 0.000000 0.630809
vt 0.000000 0.588225
vt 0.000000 0.000000
vn 0.000000 0.000000 1.000000
vn 0.000000 0.000000 1.000000
vn 0.000000 0.000000 1.000000
vn 0.000000 0.000000 1.000000
vn 0.000000 0.000000 -1.000000
vn 0.000000 0.000000 -1.000000
vn 0.000000 0.000000 -1.000000
vn 0.000000 0.000000 -1.000000
vn 1.000000 0.000000 0.000000
vn 1.000000 0.000000 0.000000
vn 1.000000 0.000000 0.000000
vn 1.000000 0.000000 0.000000
vn -1.000000 0.000000 0.000000
vn -1.000000 0.000000 0.000000
vn -1.000000 0.000000 0.000000
vn -1.000000 0.000000 0.000000
vn 0.000000 -1.000000 0.000000
vn 0.000000 -1.000000 0.000000
vn 0.000000 -1.000000 0.000000
vn 0.000000 -1.000000 0.000000
vn 0.000000 1.000000 0.000000
vn 0.000000 1.000000 0.000000
vn 0.000000 1.000000 0.000000
vn 0.000000 1.000000 0.000000
vn -0.707107 0.000000 0.707107
vn -0.707107 0.000000 0.707107
vn -0.707107 0.000000 0.707107
vn -0.707107 0.000000 0.707107
vn 0.707107 0.000000 0.707107
vn 0.707107 0.000000 0.707107
vn 0.707107 0.000000 0.707107
vn 0.707107 0.000000 0.707107
vn -0.707107 0.000000 -0.707107
vn -0.707107 0.000000 -0.707107
vn -0.707107 0.000000 -0.707107
vn -0.707107 0.000000 -0.707107
vn 0.707107 0.000000 -0.707107
vn 0.707107 0.000000 -0.707107
vn 0.707107 0.000000 -0.707107
vn 0.707107 0.000000 -0.707107
vn 0.000000 1.000000 0.000000
vn 0.000000 1.000000 0.000000
vn 0.000000 1.000000 0.000000
vn 0.000000 1.000000 0.000000
vn 0.000000 -1.000000 0.000000
vn 0.000000 -1.000000 0.000000
vn 0.000000 -1.000000 0.000000
vn 0.000000 -1.000000 0.000000
s 1
g Display_Case Models
usemtl initialShadingGroup
f 4/33/1 2/34/2 8/4/3
f 8/4/3 2/34/2 6/6/4
s 2
f 12/14/5 10/12/6 16/7/7
f 16/7/7 10/12/6 13/8/8
s 3
f 7/1/9 5/2/10 14/3/11
f 14/3/11 5/2/10 15/5/12
s 4
f 9/9/13 11/10/14 3/11/15
f 3/11/15 11/10/14 1/13/16
s 5
f 2/17/17 1/18/18 12/19/19
f 12/19/19 1/18/18 11/20/20
s 6
f 13/25/21 8/26/22 14/27/23
f 14/27/23 8/26/22 7/29/24
s 7
f 1/13/25 2/15/26 3/11/27
f 3/11/27 2/15/26 4/16/28
s 8
f 6/6/29 5/2/30 8/4/31
f 8/4/31 5/2/30 7/1/32
s 9
f 9/9/33 10/12/34 11/10/35
f 11/10/35 10/12/34 12/14/36
s 10
f 13/8/37 14/3/38 16/7/39
f 16/7/39 14/3/38 15/5/40
s 6
f 10/30/41 9/31/42 4/28/43
f 4/28/43 9/31/42 3/32/44
f 10/30/41 4/28/43 13/25/21
f 13/25/21 4/28/43 8/26/22
s 5
f 2/17/17 12/19/19 6/21/45
f 6/21/45 12/19/19 16/22/46
f 6/21/45 16/22/46 5/23/47
f 5/23/47 16/22/46 15/24/48
