# This file uses centimeters as units for non-parametric coordinates.

mtllib Display_Case_Top.mtl
g default
v -1.050045 1.000000 1.500000
v -1.500000 1.000000 1.050045
v -1.050045 -1.000000 1.500000
v -1.500000 -1.000000 1.050045
v 1.500000 1.000000 1.050045
v 1.050045 1.000000 1.500000
v 1.500000 -1.000000 1.050045
v 1.050045 -1.000000 1.500000
v -1.500000 1.000000 -1.050045
v -1.050045 1.000000 -1.500000
v -1.500000 -1.000000 -1.050045
v -1.050045 -1.000000 -1.500000
v 1.050045 1.000000 -1.500000
v 1.500000 1.000000 -1.050045
v 1.050045 -1.000000 -1.500000
v 1.500000 -1.000000 -1.050045
vt 0.486511 0.415037
vt 0.742643 0.415037
vt 0.742643 0.773637
vt 0.486511 0.773637
vt 0.739001 0.338205
vt 0.490153 0.338205
vt 0.742643 0.850469
vt 0.486511 0.850469
vt 0.743868 0.415036
vt 1.000000 0.415036
vt 1.000000 0.773637
vt 0.743868 0.773637
vt 0.996358 0.338204
vt 0.747510 0.338204
vt 1.000000 0.850469
vt 0.743868 0.850469
vt 0.000000 0.072624
vt 0.484207 0.072624
vt 0.484207 0.411583
vt 0.000000 0.411583
vt 0.072624 0.000000
vt 0.411583 0.000000
vt 0.411583 0.484207
vt 0.072624 0.484207
vt 0.493794 0.000000
vt 0.735358 0.000000
vt 0.751152 0.000000
vt 0.992716 0.000000
vn 0.000000 0.000000 1.000000
vn 0.000000 0.000000 1.000000
vn 0.000000 0.000000 1.000000
vn 0.000000 0.000000 1.000000
vn -1.000000 0.000000 0.000000
vn -1.000000 0.000000 0.000000
vn -1.000000 0.000000 0.000000
vn -1.000000 0.000000 0.000000
vn 1.000000 0.000000 0.000000
vn 1.000000 0.000000 0.000000
vn 1.000000 0.000000 0.000000
vn 1.000000 0.000000 0.000000
vn 0.000000 0.000000 -1.000000
vn 0.000000 0.000000 -1.000000
vn 0.000000 0.000000 -1.000000
vn 0.000000 0.000000 -1.000000
vn 0.000000 1.000000 0.000000
vn 0.000000 1.000000 0.000000
vn 0.000000 1.000000 0.000000
vn 0.000000 1.000000 0.000000
vn -0.707107 0.000000 0.707107
vn -0.707107 0.000000 0.707107
vn -0.707107 0.000000 0.707107
vn -0.707107 0.000000 0.707107
vn 0.707107 0.000000 0.707107
vn 0.707107 0.000000 0.707107
vn 0.707107 0.000000 0.707107
vn 0.707107 0.000000 0.707107
vn -0.707107 0.000000 -0.707107
vn -0.707107 0.000000 -0.707107
vn -0.707107 0.000000 -0.707107
vn -0.707107 0.000000 -0.707107
vn 0.707107 0.000000 -0.707107
vn 0.707107 0.000000 -0.707107
vn 0.707107 0.000000 -0.707107
vn 0.707107 0.000000 -0.707107
vn 0.000000 1.000000 0.000000
vn 0.000000 1.000000 0.000000
vn 0.000000 1.000000 0.000000
vn 0.000000 1.000000 0.000000
s 1
g Display_Case_Top Models
usemtl initialShadingGroup
f 8/25/1 6/26/2 3/6/3
f 3/6/3 6/26/2 1/5/4
s 2
f 4/1/5 2/2/6 11/4/7
f 11/4/7 2/2/6 9/3/8
s 3
f 16/9/9 14/10/10 7/12/11
f 7/12/11 14/10/10 5/11/12
s 4
f 12/27/13 10/28/14 15/14/15
f 15/14/15 10/28/14 13/13/16
s 5
f 2/17/17 5/18/18 9/20/19
f 9/20/19 5/18/18 14/19/20
s 6
f 1/5/21 2/2/22 3/6/23
f 3/6/23 2/2/22 4/1/24
s 7
f 5/11/25 6/15/26 7/12/27
f 7/12/27 6/15/26 8/16/28
s 8
f 9/3/29 10/7/30 11/4/31
f 11/4/31 10/7/30 12/8/32
s 9
f 13/13/33 14/10/34 15/14/35
f 15/14/35 14/10/34 16/9/36
s 5
f 2/17/17 1/21/37 5/18/18
f 5/18/18 1/21/37 6/22/38
f 9/20/19 14/19/20 10/24/39
f 10/24/39 14/19/20 13/23/40
