# This file uses centimeters as units for non-parametric coordinates.

mtllib Wall_Long.mtl
g default
v 35.000000 7.499750 -0.000000
v 35.000004 -6.750250 -0.000004
v 35.000000 -7.500250 -1.000000
v 35.000004 -6.750251 -1.000004
v 36.000000 -6.750251 -1.000004
v 36.000000 7.499750 -1.000000
v 35.000000 7.499750 -1.000000
v 35.000000 8.000250 -1.000000
v -35.000000 7.499750 -0.000000
v -35.000004 -6.750250 -0.000004
v -35.000000 -7.500250 -1.000000
v -35.000004 -6.750251 -1.000004
v -36.000000 -6.750251 -1.000000
v -36.000000 7.499750 -1.000000
v -35.000000 7.499750 -1.000000
v -35.000000 8.000250 -1.000000
v 36.000000 8.000250 -1.000000
v 36.000000 -7.500250 -1.000002
v -36.000000 -7.500250 -1.000000
v -36.000000 8.000250 -1.000000
vt 0.000630 0.985239
vt 0.013399 0.985239
vt 0.013399 0.998008
vt 0.000630 0.014761
vt 0.013399 0.014761
vt 0.013399 0.001992
vt 0.040461 0.985239
vt 0.053230 0.985239
vt 0.040461 0.998008
vt 0.040461 0.014761
vt 0.053230 0.014761
vt 0.040461 0.001992
vt 0.020635 0.998008
vt 0.020635 0.985239
vt 0.033405 0.985239
vt 0.020635 0.014761
vt 0.033405 0.014761
vt 0.020635 0.001992
vt 0.315522 0.972469
vt 0.072903 0.972469
vt 0.072903 0.001992
vt 0.315522 0.001992
vt 0.066671 0.985239
vt 0.066671 0.998008
vt 0.060286 0.985239
vt 0.060286 0.014761
vt 0.066671 0.014761
vt 0.066671 0.001992
vt 0.063479 0.991623
vt 0.027020 0.991623
vt 0.027020 0.008377
vt 0.063479 0.008377
vn 0.000000 -1.000000 0.000001
vn 0.000000 -1.000000 0.000001
vn 0.000000 -1.000000 0.000001
vn 0.000002 0.000005 1.000000
vn 0.000001 0.000004 1.000000
vn 0.000001 0.000004 1.000000
vn 0.000000 0.000003 1.000000
vn 0.000000 1.000000 0.000000
vn 0.000000 1.000000 0.000000
vn 0.000000 1.000000 0.000000
vn 0.000000 0.000000 1.000000
vn 0.000000 0.000000 1.000000
vn 0.000000 0.000000 1.000000
vn 0.000000 0.000000 1.000000
vn 0.000000 -0.000000 1.000000
vn 0.000000 -0.000000 1.000000
vn 0.000000 -0.000000 1.000000
vn 0.000000 -0.000000 1.000000
vn 0.000000 0.000005 1.000000
vn 0.000000 0.000005 1.000000
vn 0.000000 0.000005 1.000000
vn 0.000000 0.000005 1.000000
vn 0.000000 -1.000000 0.000001
vn 0.000000 -1.000000 0.000001
vn 0.000000 -1.000000 0.000001
vn 0.000000 -1.000000 0.000001
vn 0.000000 0.000005 1.000000
vn 0.000002 0.000003 1.000000
vn 0.000002 0.000002 1.000000
vn 0.000004 0.000000 1.000000
vn 0.000000 -1.000000 0.000001
vn 0.000000 -1.000000 0.000001
vn 0.000000 -1.000000 0.000001
vn 0.000000 1.000000 0.000000
vn 0.000000 1.000000 0.000000
vn 0.000000 1.000000 0.000000
vn 0.000000 0.000000 1.000000
vn 0.000000 0.000000 1.000000
vn 0.000000 0.000000 1.000000
vn 0.000000 0.000000 1.000000
vn 0.000000 0.000000 1.000000
vn 0.000000 0.000000 1.000000
vn 0.000000 0.000000 1.000000
vn 0.000000 0.000000 1.000000
s off
g Wall_Long Models
usemtl initialShadingGroup
f 2/1/1 4/2/2 5/3/3
s 1
f 3/15/4 18/30/5 4/14/6
f 4/14/6 18/30/5 5/13/7
s 2
f 1/8/8 6/9/9 7/7/10
s 3
f 8/25/11 7/23/12 17/29/13
f 17/29/13 7/23/12 6/24/14
s 4
f 2/19/15 1/20/16 10/22/17
f 10/22/17 1/20/16 9/21/18
s 5
f 12/16/19 11/17/20 4/14/21
f 4/14/21 11/17/20 3/15/22
s 6
f 10/4/23 12/5/24 2/1/25
f 2/1/25 12/5/24 4/2/26
s 7
f 11/17/27 12/16/28 19/31/29
f 19/31/29 12/16/28 13/18/30
s off
f 12/5/31 10/4/32 13/6/33
s 2
f 14/12/34 9/11/35 15/10/36
s 9
f 16/26/37 20/32/38 15/27/39
f 15/27/39 20/32/38 14/28/40
s 10
f 8/25/41 16/26/42 7/23/43
f 7/23/43 16/26/42 15/27/44
s 2
f 1/8/8 7/7/10 9/11/35
f 9/11/35 7/7/10 15/10/36
