# This file uses centimeters as units for non-parametric coordinates.

mtllib Table.mtl
g default
v -6.250000 0.000000 6.000000
v -6.000000 0.000000 6.250000
v -6.250000 3.000000 6.000000
v -6.000000 3.000000 6.250000
v 6.250000 0.000000 6.000000
v 6.000000 0.000000 6.250000
v 6.250000 3.000000 6.000000
v 6.000000 3.000000 6.250000
v -6.250000 3.000000 -6.000000
v -6.000000 3.000000 -6.250000
v -6.250000 0.000000 -6.000000
v -6.000000 0.000000 -6.250000
v 6.000000 3.000000 -6.250000
v 6.250000 3.000000 -6.000000
v 6.250000 0.000000 -6.000000
v 6.000000 0.000000 -6.250000
vt 0.899699 0.974373
vt 0.802384 0.974373
vt 0.899699 0.596058
vt 0.899699 0.985320
vt 0.802384 0.596058
vt 0.802384 0.985320
vt 0.802384 0.585111
vt 0.899699 0.585111
vt 1.000000 0.974373
vt 0.902684 0.974373
vt 1.000000 0.596058
vt 1.000000 0.985320
vt 0.902684 0.596058
vt 0.902684 0.985320
vt 0.902684 0.585111
vt 1.000000 0.585111
vt 0.398380 0.593334
vt 0.387483 0.604231
vt 0.000000 0.593334
vt 0.010897 0.604231
vt 0.398380 0.010897
vt 0.000000 0.010897
vt 0.387483 0.000000
vt 0.010897 0.000000
vt 0.799572 0.010897
vt 0.401192 0.010897
vt 0.788675 0.000000
vt 0.401192 0.593334
vt 0.412089 0.000000
vt 0.799572 0.593334
vt 0.788675 0.604231
vt 0.412089 0.604231
vt 0.999997 0.000000
vt 0.902682 0.000000
vt 0.802387 0.000000
vt 0.899703 0.000001
vn 0.000000 0.000000 1.000000
vn 0.000000 0.000000 1.000000
vn 0.000000 0.000000 1.000000
vn 0.000000 0.000000 1.000000
vn 0.000000 0.000000 -1.000000
vn 0.000000 0.000000 -1.000000
vn 0.000000 0.000000 -1.000000
vn 0.000000 0.000000 -1.000000
vn 1.000000 0.000000 0.000000
vn 1.000000 0.000000 0.000000
vn 1.000000 0.000000 0.000000
vn 1.000000 0.000000 0.000000
vn -1.000000 0.000000 0.000000
vn -1.000000 0.000000 0.000000
vn -1.000000 0.000000 0.000000
vn -1.000000 0.000000 0.000000
vn 0.000000 -1.000000 0.000000
vn 0.000000 -1.000000 0.000000
vn 0.000000 -1.000000 0.000000
vn 0.000000 -1.000000 0.000000
vn 0.000000 1.000000 0.000000
vn 0.000000 1.000000 0.000000
vn 0.000000 1.000000 0.000000
vn 0.000000 1.000000 0.000000
vn -0.707107 0.000000 0.707107
vn -0.707107 0.000000 0.707107
vn -0.707107 0.000000 0.707107
vn -0.707107 0.000000 0.707107
vn 0.707107 0.000000 0.707107
vn 0.707107 0.000000 0.707107
vn 0.707107 0.000000 0.707107
vn 0.707107 0.000000 0.707107
vn -0.707107 0.000000 -0.707107
vn -0.707107 0.000000 -0.707107
vn -0.707107 0.000000 -0.707107
vn -0.707107 0.000000 -0.707107
vn 0.707107 0.000000 -0.707107
vn 0.707107 0.000000 -0.707107
vn 0.707107 0.000000 -0.707107
vn 0.707107 0.000000 -0.707107
vn 0.000000 1.000000 0.000000
vn 0.000000 1.000000 0.000000
vn 0.000000 1.000000 0.000000
vn 0.000000 1.000000 0.000000
vn 0.000000 -1.000000 0.000000
vn 0.000000 -1.000000 0.000000
vn 0.000000 -1.000000 0.000000
vn 0.000000 -1.000000 0.000000
s 1
g Table Models
usemtl initialShadingGroup
f 4/16/1 2/15/2 8/33/3
f 8/33/3 2/15/2 6/34/4
s 2
f 12/35/5 10/36/6 16/7/7
f 16/7/7 10/36/6 13/8/8
s 3
f 7/1/9 5/2/10 14/3/11
f 14/3/11 5/2/10 15/5/12
s 4
f 9/9/13 11/10/14 3/11/15
f 3/11/15 11/10/14 1/13/16
s 5
f 2/17/17 1/18/18 12/19/19
f 12/19/19 1/18/18 11/20/20
s 6
f 13/25/21 8/26/22 14/27/23
f 14/27/23 8/26/22 7/29/24
s 7
f 1/13/25 2/15/26 3/11/27
f 3/11/27 2/15/26 4/16/28
s 8
f 6/6/29 5/2/30 8/4/31
f 8/4/31 5/2/30 7/1/32
s 9
f 9/9/33 10/12/34 11/10/35
f 11/10/35 10/12/34 12/14/36
s 10
f 13/8/37 14/3/38 16/7/39
f 16/7/39 14/3/38 15/5/40
s 6
f 10/30/41 9/31/42 4/28/43
f 4/28/43 9/31/42 3/32/44
f 10/30/41 4/28/43 13/25/21
f 13/25/21 4/28/43 8/26/22
s 5
f 2/17/17 12/19/19 6/21/45
f 6/21/45 12/19/19 16/22/46
f 6/21/45 16/22/46 5/23/47
f 5/23/47 16/22/46 15/24/48
